<svg xmlns="http://www.w3.org/2000/svg" xmlns:xlink="http://www.w3.org/1999/xlink" width="209" height="450" viewBox="0 0 209 450">
  <defs>
    <clipPath id="clip-path">
      <path id="Path_4" data-name="Path 4" d="M0,0H189a20,20,0,0,1,20,20V430a20,20,0,0,1-20,20H0Z" fill="#639"/>
    </clipPath>
    <linearGradient id="linear-gradient" x1="0.486" y1="0.422" x2="0.833" y2="0.897" gradientUnits="objectBoundingBox">
      <stop offset="0" stop-color="#af74eb"/>
      <stop offset="1" stop-color="#639"/>
    </linearGradient>
    <filter id="Path_2" x="-81.5" y="145.461" width="462.805" height="426.557" filterUnits="userSpaceOnUse">
      <feOffset dx="-15" dy="2" input="SourceAlpha"/>
      <feGaussianBlur stdDeviation="13.5" result="blur"/>
      <feFlood flood-opacity="0.333"/>
      <feComposite operator="in" in2="blur"/>
      <feComposite in="SourceGraphic"/>
    </filter>
    <linearGradient id="linear-gradient-2" x1="0.486" y1="0.422" x2="0.833" y2="0.897" gradientUnits="objectBoundingBox">
      <stop offset="0" stop-color="#d1a3ff"/>
      <stop offset="1" stop-color="#639"/>
    </linearGradient>
    <filter id="Path_3" x="-208.495" y="-132.498" width="462.805" height="426.557" filterUnits="userSpaceOnUse">
      <feOffset dy="15" input="SourceAlpha"/>
      <feGaussianBlur stdDeviation="13.5" result="blur-2"/>
      <feFlood flood-opacity="0.502"/>
      <feComposite operator="in" in2="blur-2"/>
      <feComposite in="SourceGraphic"/>
    </filter>
  </defs>
  <g id="Group_1" data-name="Group 1" clip-path="url(#clip-path)">
    <g transform="matrix(1, 0, 0, 1, 0, 0)" filter="url(#Path_2)">
      <path id="Path_2-2" data-name="Path 2" d="M15.445,245.592s21.535-70,102-66,88-88,88-88-1.926-107,119-89,13.082,161,13.082,161L324.445,346.108,5.477,298.416,0,249.592Z" transform="translate(-26 183.41)" opacity="0.1" fill="url(#linear-gradient)"/>
    </g>
    <g transform="matrix(1, 0, 0, 1, 0, 0)" filter="url(#Path_3)">
      <path id="Path_3-2" data-name="Path 3" d="M15.445,245.592s21.535-70,102-66,88-88,88-88-1.926-107,119-89,13.082,161,13.082,161L324.445,346.108,5.477,298.416,0,249.592Z" transform="translate(213.81 239.11) rotate(180)" opacity="0.05" fill="url(#linear-gradient-2)"/>
    </g>
  </g>
</svg>
